# xmcd CD database file
#
# Track frame offsets:
#	150
#	18863
#	48265
#
# Disc length: 1015 seconds
#
# Revision: 0
# Processed by: cddbd v1.5.1PL2 Copyright (c) Steve Scherf et al.
# Submitted via: CDex 1.51
#
DISCID=1703f503
DTITLE=Texas - In Our Lifetime [CDS)
DYEAR=1999
DGENRE=Rock
TTITLE0=In Our Lifetime
TTITLE1=In Our Lifetime (Jules' Disco Trip Mix)
TTITLE2=In Our Lifetime (Return To Tha Dub Mix)
EXTD=YEAR: 1999
EXTT0=
EXTT1=
EXTT2=
PLAYORDER=
